<svg xmlns="http://www.w3.org/2000/svg" xmlns:xlink="http://www.w3.org/1999/xlink" viewBox="30.2 30.12 232.14 147.22">
<defs>
<g>
<g id="glyph-0-0">
<path d="M 1.921875 0 L 5.453125 0 L 5.453125 -6.21875 L 13.109375 -6.21875 L 13.109375 -9.421875 L 5.453125 -9.421875 L 5.453125 -12.84375 L 14.140625 -12.84375 L 14.140625 -16.046875 L 1.921875 -16.046875 Z M 1.921875 0 " />
</g>
<g id="glyph-0-1">
<path d="M 2.078125 0 L 5.609375 0 L 5.609375 -16.046875 L 2.078125 -16.046875 Z M 2.078125 0 " />
</g>
<g id="glyph-0-2">
<path d="M 1.921875 0 L 8.1875 0 C 13.21875 0 16.703125 -3.5 16.703125 -8.015625 L 16.703125 -8.0625 C 16.703125 -12.578125 13.21875 -16.046875 8.1875 -16.046875 L 1.921875 -16.046875 Z M 8.1875 -12.859375 C 11.078125 -12.859375 13.015625 -10.859375 13.015625 -8.015625 L 13.015625 -7.984375 C 13.015625 -5.140625 11.078125 -3.1875 8.1875 -3.1875 L 5.453125 -3.1875 L 5.453125 -12.859375 Z M 8.1875 -12.859375 " />
</g>
<g id="glyph-0-3">
<path d="M 1.921875 0 L 14.140625 0 L 14.140625 -3.140625 L 5.4375 -3.140625 L 5.4375 -6.515625 L 13 -6.515625 L 13 -9.65625 L 5.4375 -9.65625 L 5.4375 -12.90625 L 14.03125 -12.90625 L 14.03125 -16.046875 L 1.921875 -16.046875 Z M 1.921875 0 " />
</g>
<g id="glyph-0-4">
<path d="M 1.921875 0 L 13.453125 0 L 13.453125 -3.203125 L 5.453125 -3.203125 L 5.453125 -16.046875 L 1.921875 -16.046875 Z M 1.921875 0 " />
</g>
<g id="glyph-0-5">
<path d="M 0.546875 0 L 4.15625 0 L 5.609375 -3.59375 L 12.40625 -3.59375 L 13.875 0 L 17.5625 0 L 10.6875 -16.15625 L 7.421875 -16.15625 Z M 6.875 -6.71875 L 9.015625 -11.921875 L 11.140625 -6.71875 Z M 6.875 -6.71875 " />
</g>
<g id="glyph-1-0">
<path d="M 4.515625 0 L 5.796875 0 L 5.796875 -10.09375 L 9.59375 -10.09375 L 9.59375 -11.265625 L 0.71875 -11.265625 L 0.71875 -10.09375 L 4.515625 -10.09375 Z M 4.515625 0 " />
</g>
<g id="glyph-1-1">
<path d="M 3.859375 0.171875 C 5.328125 0.171875 6.296875 -0.5 6.875 -1.25 L 6.875 0 L 8.0625 0 L 8.0625 -5.078125 C 8.0625 -6.140625 7.765625 -6.953125 7.203125 -7.515625 C 6.59375 -8.125 5.703125 -8.4375 4.515625 -8.4375 C 3.3125 -8.4375 2.40625 -8.15625 1.5 -7.734375 L 1.859375 -6.734375 C 2.640625 -7.078125 3.40625 -7.34375 4.390625 -7.34375 C 5.953125 -7.34375 6.875 -6.5625 6.875 -5.0625 L 6.875 -4.78125 C 6.125 -4.984375 5.375 -5.140625 4.3125 -5.140625 C 2.203125 -5.140625 0.75 -4.203125 0.75 -2.453125 L 0.75 -2.40625 C 0.75 -0.703125 2.3125 0.171875 3.859375 0.171875 Z M 4.109375 -0.796875 C 2.984375 -0.796875 2.015625 -1.421875 2.015625 -2.46875 L 2.015625 -2.5 C 2.015625 -3.546875 2.875 -4.21875 4.4375 -4.21875 C 5.453125 -4.21875 6.28125 -4.046875 6.890625 -3.859375 L 6.890625 -3.0625 C 6.890625 -1.734375 5.625 -0.796875 4.109375 -0.796875 Z M 4.109375 -0.796875 " />
</g>
<g id="glyph-1-2">
<path d="M 1.390625 0 L 2.625 0 L 2.625 -3.3125 C 2.625 -5.828125 4.109375 -7.125 5.921875 -7.125 L 6.015625 -7.125 L 6.015625 -8.46875 C 4.4375 -8.53125 3.234375 -7.53125 2.625 -6.140625 L 2.625 -8.328125 L 1.390625 -8.328125 Z M 1.390625 0 " />
</g>
<g id="glyph-1-3">
<path d="M 1.421875 -10.140625 L 2.828125 -10.140625 L 2.828125 -11.5 L 1.421875 -11.5 Z M 0.703125 2.625 C 1.96875 2.625 2.734375 1.953125 2.734375 0.484375 L 2.734375 -8.328125 L 1.5 -8.328125 L 1.5 0.46875 C 1.5 1.234375 1.109375 1.578125 0.546875 1.578125 C 0.375 1.578125 0.125 1.5625 -0.0625 1.53125 L -0.0625 2.546875 C 0.203125 2.609375 0.421875 2.625 0.703125 2.625 Z M 0.703125 2.625 " />
</g>
<g id="glyph-1-4">
<path d="M 5.015625 0.1875 C 6.59375 0.1875 7.609375 -0.4375 8.453125 -1.375 L 7.671875 -2.0625 C 7 -1.359375 6.203125 -0.890625 5.046875 -0.890625 C 3.578125 -0.890625 2.296875 -1.90625 2.125 -3.703125 L 8.71875 -3.703125 C 8.734375 -3.84375 8.734375 -3.9375 8.734375 -4.109375 C 8.734375 -6.53125 7.328125 -8.5 4.859375 -8.5 C 2.5625 -8.5 0.875 -6.5625 0.875 -4.171875 L 0.875 -4.140625 C 0.875 -1.5625 2.734375 0.1875 5.015625 0.1875 Z M 2.125 -4.625 C 2.28125 -6.25 3.375 -7.453125 4.828125 -7.453125 C 6.484375 -7.453125 7.359375 -6.125 7.484375 -4.625 Z M 2.125 -4.625 " />
</g>
<g id="glyph-1-5">
<path d="M 4.171875 0.140625 C 4.765625 0.140625 5.234375 0.015625 5.671875 -0.203125 L 5.671875 -1.265625 C 5.234375 -1.0625 4.875 -0.984375 4.453125 -0.984375 C 3.625 -0.984375 3.0625 -1.359375 3.0625 -2.359375 L 3.0625 -7.21875 L 5.703125 -7.21875 L 5.703125 -8.328125 L 3.0625 -8.328125 L 3.0625 -10.828125 L 1.8125 -10.828125 L 1.8125 -8.328125 L 0.65625 -8.328125 L 0.65625 -7.21875 L 1.8125 -7.21875 L 1.8125 -2.203125 C 1.8125 -0.515625 2.828125 0.140625 4.171875 0.140625 Z M 4.171875 0.140625 " />
</g>
<g id="glyph-1-6">
</g>
<g id="glyph-1-7">
<path d="M 4.875 0.171875 C 6.40625 0.171875 7.390625 -0.671875 8.0625 -1.671875 L 8.0625 0 L 9.296875 0 L 9.296875 -11.75 L 8.0625 -11.75 L 8.0625 -6.734375 C 7.421875 -7.65625 6.421875 -8.5 4.875 -8.5 C 2.875 -8.5 0.90625 -6.890625 0.90625 -4.171875 L 0.90625 -4.140625 C 0.90625 -1.40625 2.875 0.171875 4.875 0.171875 Z M 5.109375 -0.9375 C 3.53125 -0.9375 2.171875 -2.1875 2.171875 -4.15625 L 2.171875 -4.1875 C 2.171875 -6.203125 3.5 -7.390625 5.109375 -7.390625 C 6.640625 -7.390625 8.109375 -6.09375 8.109375 -4.1875 L 8.109375 -4.15625 C 8.109375 -2.234375 6.640625 -0.9375 5.109375 -0.9375 Z M 5.109375 -0.9375 " />
</g>
</g>
<clipPath id="clip-0">
<path clip-rule="nonzero" d="M 161 91 L 262.34375 91 L 262.34375 177.339844 L 161 177.339844 Z M 161 91 " />
</clipPath>
<clipPath id="clip-1">
<path clip-rule="nonzero" d="M 0.0742188 0 L 292.46875 0 L 292.46875 207.464844 L 0.0742188 207.464844 Z M 0.0742188 0 " />
</clipPath>
</defs>
<path fill-rule="nonzero" fill="rgb(89.115906%, 30.705261%, 26.802063%)" fill-opacity="1" d="M 30.199219 177.339844 L 262.34375 177.339844 L 262.34375 30.125 L 30.199219 30.125 Z M 30.199219 177.339844 " />
<g clip-path="url(#clip-0)">
<path fill-rule="nonzero" fill="rgb(91.096497%, 90.841675%, 79.28009%)" fill-opacity="1" d="M 265.082031 151.082031 C 263.390625 159.664062 257.578125 165.398438 250.316406 169.695312 C 245.425781 172.589844 240.148438 174.742188 234.589844 175.90625 C 218.394531 179.300781 202.359375 178.839844 186.6875 173.117188 C 180.980469 171.03125 175.628906 168.246094 171.171875 163.980469 C 165.949219 158.984375 163.128906 152.992188 163.972656 145.679688 C 164.882812 137.796875 169.601562 132.558594 176.589844 128.292969 C 178.070312 135.300781 180.296875 141.550781 184.34375 147.222656 C 184.628906 147.390625 184.714844 147.464844 184.761719 147.679688 C 190.566406 155.664062 198.027344 161.039062 207.855469 162.578125 C 213.976562 163.535156 220.105469 163.363281 226.097656 161.574219 C 231.765625 159.882812 236.492188 156.640625 240.285156 152.164062 C 242.246094 149.847656 244.453125 148.449219 247.460938 147.914062 C 253.683594 146.8125 259.488281 144.671875 264.144531 140.132812 C 264.527344 139.761719 266.425781 144.277344 265.082031 151.082031 M 255.179688 127.410156 C 258.15625 125.441406 260.808594 126.207031 261.355469 129.390625 C 261.449219 129.9375 261.339844 130.519531 261.328125 131.085938 C 260.902344 132.253906 260.539062 132.199219 259.976562 131.679688 C 258.390625 130.214844 256.753906 128.804688 255.179688 127.410156 M 256.285156 130.171875 C 257.578125 131.257812 258.828125 132.402344 260.132812 133.554688 C 257.117188 137.757812 252.886719 138.972656 248.027344 140.097656 C 248.957031 137.4375 249.753906 135.160156 250.550781 132.882812 C 251 131.980469 251.214844 131.441406 251.515625 130.960938 C 253.160156 128.375 253.976562 128.234375 256.285156 130.171875 M 185.101562 102.453125 C 188.667969 99.125 192.941406 96.925781 197.578125 95.523438 C 209.089844 92.042969 220.625 91.871094 232.121094 95.605469 C 237.320312 97.296875 241.886719 100.019531 245.566406 104.140625 C 249.308594 108.328125 251.378906 113.109375 251.027344 118.820312 C 250.933594 120.386719 251.015625 121.964844 251.015625 123.574219 C 251.417969 123.484375 251.683594 123.503906 251.738281 123.40625 C 253.710938 119.910156 256.914062 119.699219 260.253906 120.46875 C 263.773438 121.277344 265.8125 123.757812 266.480469 127.261719 C 266.917969 129.5625 266.660156 131.851562 265.714844 134.03125 C 264.226562 137.472656 261.984375 140.304688 258.699219 142.167969 C 254.136719 144.75 249.164062 146.058594 243.976562 146.597656 C 246.246094 142.949219 245.550781 144 247.328125 141.492188 C 247.738281 141.492188 248.121094 141.53125 248.496094 141.488281 C 253.941406 140.835938 258.714844 138.890625 261.910156 134.167969 C 263.742188 131.464844 263.617188 128.355469 261.800781 126.464844 C 260.136719 124.738281 256.910156 124.390625 254.324219 126.035156 C 252.75 127.035156 251.402344 128.46875 250.164062 129.890625 C 249.4375 130.722656 249.089844 131.902344 248.636719 132.953125 C 246.964844 136.816406 245.324219 140.691406 243.667969 144.558594 C 243.234375 145.574219 242.894531 146.84375 242.761719 146.96875 C 239.992188 149.589844 237.75 152.351562 234.816406 154.777344 C 229.859375 158.875 224.015625 160.960938 217.625 161.113281 C 213.917969 161.203125 210.121094 161.066406 206.496094 160.351562 C 197.953125 158.664062 191.25 153.90625 186.226562 146.832031 C 182.410156 141.457031 179.777344 135.554688 178.714844 129 C 178.589844 128.082031 178.515625 127.621094 178.4375 127.15625 C 178.480469 125.820312 178.390625 124.765625 178.15625 123.75 C 176.1875 115.246094 178.890625 108.25 185.101562 102.453125 M 265.347656 138.738281 C 268.75 134.117188 269.601562 129.15625 267.324219 123.660156 C 267.042969 123.265625 266.894531 122.976562 266.742188 122.6875 C 262.359375 118.21875 259.734375 117.605469 252.71875 119.597656 C 253.003906 113.953125 251.453125 108.917969 247.828125 104.390625 C 245.042969 101.445312 243.597656 100.410156 240.433594 98.105469 C 236.296875 95.769531 236.074219 95.816406 233.765625 94.65625 C 226.523438 92.304688 219.289062 91.15625 211.839844 91.527344 C 203.292969 91.953125 195.214844 93.992188 187.511719 98.640625 C 185.480469 100.234375 183.761719 101.613281 182.042969 102.992188 C 182.042969 102.992188 182.023438 102.960938 181.949219 103.152344 C 175.914062 110.007812 174.785156 117.84375 176.445312 126.289062 C 176.03125 126.617188 175.765625 126.890625 175.445312 127.066406 C 174.949219 127.339844 174.417969 127.546875 173.902344 127.78125 C 173.226562 128.308594 172.550781 128.835938 171.589844 129.578125 C 167.847656 132.164062 165.40625 135.316406 163.636719 139.125 C 161.492188 143.746094 161.222656 148.378906 162.542969 153.261719 C 164.488281 160.445312 169.09375 165.507812 175.113281 169.46875 C 180.113281 172.757812 185.589844 175.054688 191.332031 176.699219 C 201.582031 179.632812 212.019531 180.523438 222.648438 179.636719 C 230.453125 178.984375 238 177.335938 245.199219 174.269531 C 251.910156 171.40625 257.828125 167.410156 262.257812 161.472656 C 265.125 157.628906 267.269531 153.402344 267.320312 148.554688 C 267.402344 140.550781 265.113281 139.054688 265.347656 138.738281 " />
</g>
<path fill-rule="nonzero" fill="rgb(91.096497%, 90.841675%, 79.28009%)" fill-opacity="1" d="M 214.886719 138.648438 C 219.054688 138.058594 223.277344 137.710938 227.382812 136.820312 C 232.703125 135.671875 237.457031 133.148438 241.597656 129.585938 C 245.246094 126.449219 247.46875 122.542969 247.625 117.628906 C 247.796875 112.269531 245.640625 107.980469 241.625 104.519531 C 235.316406 99.089844 227.714844 97 219.703125 96.054688 C 212.242188 95.175781 204.957031 96.425781 197.84375 98.523438 C 192.691406 100.046875 188.230469 102.871094 184.824219 107.109375 C 179.386719 113.878906 179.695312 122.160156 185.550781 128.566406 C 188.046875 131.296875 191.03125 133.359375 194.4375 134.78125 C 200.800781 137.433594 207.460938 138.632812 214.886719 138.648438 M 235.355469 135.742188 C 221.5625 142.074219 207.855469 141.789062 194.148438 136.335938 C 189.347656 134.425781 185.320312 131.328125 182.425781 126.949219 C 177.902344 120.085938 178.445312 112.128906 183.953125 106.03125 C 187.070312 102.585938 190.746094 99.816406 195.136719 98.164062 C 206.015625 94.066406 217.121094 93.160156 228.425781 96.132812 C 233.773438 97.542969 238.644531 99.976562 242.789062 103.699219 C 246.734375 107.246094 249.070312 111.617188 249.28125 117.003906 C 249.394531 119.960938 248.617188 122.679688 247.128906 125.222656 C 244.375 129.933594 240.367188 133.238281 235.355469 135.742188 " />
<path fill-rule="nonzero" fill="rgb(91.096497%, 90.841675%, 79.28009%)" fill-opacity="1" d="M 203.445312 84.34375 C 201.488281 85.519531 200.335938 87.457031 200.390625 89.761719 C 200.449219 92.429688 202.015625 94.664062 203.46875 96.789062 C 205.140625 99.226562 206.652344 101.699219 206.46875 104.769531 C 206.28125 107.878906 204.570312 110.566406 202.265625 112.574219 C 201.660156 113.097656 202.546875 113.980469 203.148438 113.457031 C 206.984375 110.121094 208.957031 104.863281 206.84375 100.011719 C 205.082031 95.960938 197.835938 89.167969 204.074219 85.421875 C 204.761719 85.007812 204.136719 83.929688 203.445312 84.34375 " />
<path fill-rule="nonzero" fill="rgb(91.096497%, 90.841675%, 79.28009%)" fill-opacity="1" d="M 213.675781 80.460938 C 211.71875 81.636719 210.566406 83.574219 210.621094 85.878906 C 210.679688 88.550781 212.246094 90.78125 213.699219 92.90625 C 215.371094 95.347656 216.882812 97.820312 216.699219 100.890625 C 216.511719 104 214.800781 106.6875 212.496094 108.691406 C 211.890625 109.21875 212.777344 110.097656 213.378906 109.574219 C 217.214844 106.242188 219.1875 100.980469 217.074219 96.132812 C 215.3125 92.082031 208.066406 85.285156 214.304688 81.539062 C 214.992188 81.128906 214.367188 80.046875 213.675781 80.460938 " />
<path fill-rule="nonzero" fill="rgb(91.096497%, 90.841675%, 79.28009%)" fill-opacity="1" d="M 223.90625 84.34375 C 221.949219 85.519531 220.796875 87.457031 220.851562 89.761719 C 220.910156 92.429688 222.476562 94.664062 223.929688 96.789062 C 225.601562 99.226562 227.113281 101.699219 226.929688 104.769531 C 226.742188 107.878906 225.03125 110.566406 222.726562 112.574219 C 222.121094 113.097656 223.007812 113.980469 223.609375 113.457031 C 227.445312 110.121094 229.417969 104.863281 227.304688 100.011719 C 225.539062 95.960938 218.296875 89.167969 224.535156 85.421875 C 225.222656 85.007812 224.597656 83.929688 223.90625 84.34375 " />
<g fill="rgb(91.096497%, 90.841675%, 79.28009%)" fill-opacity="1">
<use xlink:href="#glyph-0-0" x="50.258017" y="92.42526" />
<use xlink:href="#glyph-0-1" x="65.290412" y="92.42526" />
<use xlink:href="#glyph-0-2" x="72.989932" y="92.42526" />
<use xlink:href="#glyph-0-3" x="90.909647" y="92.42526" />
<use xlink:href="#glyph-0-4" x="106.262855" y="92.42526" />
<use xlink:href="#glyph-0-1" x="120.447386" y="92.42526" />
<use xlink:href="#glyph-0-2" x="128.146906" y="92.42526" />
</g>
<g fill="rgb(91.096497%, 90.841675%, 79.28009%)" fill-opacity="1">
<use xlink:href="#glyph-0-5" x="144.920859" y="92.42526" />
<use xlink:href="#glyph-0-2" x="163.023896" y="92.42526" />
</g>
<g fill="rgb(91.096497%, 90.841675%, 79.28009%)" fill-opacity="1">
<use xlink:href="#glyph-1-0" x="50.258017" y="71.728362" />
</g>
<g fill="rgb(91.096497%, 90.841675%, 79.28009%)" fill-opacity="1">
<use xlink:href="#glyph-1-1" x="58.591676" y="71.728362" />
<use xlink:href="#glyph-1-2" x="67.906711" y="71.728362" />
<use xlink:href="#glyph-1-3" x="74.42241" y="71.728362" />
<use xlink:href="#glyph-1-4" x="78.653592" y="71.728362" />
<use xlink:href="#glyph-1-5" x="88.177773" y="71.728362" />
<use xlink:href="#glyph-1-1" x="94.677383" y="71.728362" />
<use xlink:href="#glyph-1-6" x="103.992419" y="71.728362" />
<use xlink:href="#glyph-1-7" x="108.818862" y="71.728362" />
<use xlink:href="#glyph-1-4" x="119.50139" y="71.728362" />
</g>
<path fill-rule="nonzero" fill="rgb(91.096497%, 90.841675%, 79.28009%)" fill-opacity="1" d="M 82.917969 136.558594 L 82.949219 146.628906 L 84.863281 146.628906 L 84.863281 136.558594 Z M 82.917969 136.558594 " />
<path fill-rule="nonzero" fill="rgb(91.096497%, 90.841675%, 79.28009%)" fill-opacity="1" d="M 89.078125 142.621094 C 90.597656 142.472656 90.636719 141.074219 89.078125 141.03125 C 87.574219 140.992188 87.59375 142.566406 89.078125 142.621094 M 90.1875 142.789062 C 89.363281 143.164062 88.558594 143.445312 87.820312 143.941406 C 86.609375 145.351562 89.714844 145.949219 90.1875 142.789062 M 92.179688 146.640625 L 90.265625 146.640625 L 90.265625 144.226562 C 90.058594 144.710938 89.917969 145.113281 89.722656 145.484375 C 88.96875 147.234375 86.058594 147.445312 85.625 145.472656 C 85.226562 143.851562 86.980469 143.347656 88.207031 142.976562 C 87.316406 142.832031 86.1875 142.644531 86.003906 141.582031 C 85.78125 139.066406 89.75 138.792969 91.28125 139.90625 C 91.777344 140.257812 92.148438 140.738281 92.164062 141.335938 C 92.207031 143.09375 92.179688 144.851562 92.179688 146.640625 " />
<path fill-rule="nonzero" fill="rgb(91.096497%, 90.841675%, 79.28009%)" fill-opacity="1" d="M 71.902344 132.578125 C 71.367188 132.808594 70.847656 133.042969 70.355469 133.371094 C 69.472656 134.398438 70.890625 134.996094 71.902344 134.011719 C 71.902344 133.535156 71.902344 133.054688 71.902344 132.578125 " />
<path fill-rule="nonzero" fill="rgb(91.096497%, 90.841675%, 79.28009%)" fill-opacity="1" d="M 71.617188 130.460938 C 70.113281 130.421875 70.128906 131.996094 71.617188 132.050781 C 71.71875 132.039062 71.8125 132.023438 71.902344 132.003906 C 71.902344 131.496094 71.902344 130.992188 71.898438 130.484375 C 71.8125 130.472656 71.71875 130.464844 71.617188 130.460938 " />
<path fill-rule="nonzero" fill="rgb(91.096497%, 90.841675%, 79.28009%)" fill-opacity="1" d="M 67.574219 141.855469 C 67.894531 139.605469 70.21875 138.621094 71.734375 139.691406 C 71.84375 139.039062 71.898438 138.363281 71.898438 137.671875 C 71.898438 136.941406 71.902344 136.210938 71.902344 135.476562 C 70.839844 136.679688 68.542969 136.636719 68.160156 134.902344 C 67.765625 133.28125 69.515625 132.777344 70.746094 132.40625 C 69.855469 132.261719 68.726562 132.078125 68.542969 131.011719 C 68.453125 130.035156 69 129.398438 69.785156 129.050781 C 68.242188 129.503906 66.957031 130.425781 65.957031 131.84375 C 65.046875 133.128906 64.6875 134.585938 64.703125 136.148438 C 64.710938 136.832031 64.722656 137.515625 64.664062 138.195312 C 63.941406 143.066406 56.882812 142.078125 57.515625 137.167969 C 57.925781 134.695312 60.699219 133.476562 62.882812 134.621094 C 63.285156 125.964844 50.480469 126.765625 50.269531 137.347656 C 49.820312 146.921875 61.425781 152.183594 68.28125 145.855469 C 67.546875 144.929688 67.15625 143.476562 67.574219 141.855469 " />
<path fill-rule="nonzero" fill="rgb(91.096497%, 90.841675%, 79.28009%)" fill-opacity="1" d="M 69.542969 143.921875 C 69.582031 144.070312 69.632812 144.210938 69.695312 144.339844 C 70.5 143.320312 71.070312 142.195312 71.429688 140.988281 C 70.03125 140.613281 69.035156 142.503906 69.542969 143.921875 " />
<path fill-rule="nonzero" fill="rgb(91.096497%, 90.841675%, 79.28009%)" fill-opacity="1" d="M 72.777344 136.558594 L 72.777344 141.148438 C 72.542969 140.480469 72.171875 140 71.734375 139.691406 C 71.660156 140.132812 71.558594 140.566406 71.433594 140.988281 C 71.664062 141.050781 71.910156 141.175781 72.160156 141.375 C 72.449219 141.613281 72.8125 141.839844 72.667969 142.273438 C 72.570312 143.445312 72.105469 145.167969 70.683594 145.085938 C 70.1875 145.019531 69.882812 144.730469 69.695312 144.339844 C 69.472656 144.621094 69.234375 144.890625 68.976562 145.15625 C 68.753906 145.40625 68.519531 145.636719 68.28125 145.855469 C 69.546875 147.449219 71.839844 147.480469 72.8125 144.082031 L 72.8125 146.628906 L 74.722656 146.628906 L 74.722656 136.558594 Z M 72.777344 136.558594 " />
<path fill-rule="nonzero" fill="rgb(91.096497%, 90.841675%, 79.28009%)" fill-opacity="1" d="M 74.699219 130.765625 C 74.6875 130.167969 74.3125 129.6875 73.820312 129.335938 C 73.3125 128.96875 72.542969 128.753906 71.746094 128.722656 C 71.882812 128.75 71.898438 128.847656 71.898438 129.121094 C 71.898438 129.574219 71.898438 130.03125 71.898438 130.488281 C 73.070312 130.667969 73.046875 131.742188 71.902344 132.003906 C 71.902344 132.195312 71.902344 132.386719 71.902344 132.578125 C 72.171875 132.460938 72.445312 132.347656 72.722656 132.21875 C 72.59375 133.074219 72.277344 133.648438 71.902344 134.011719 C 71.902344 134.5 71.902344 134.988281 71.902344 135.476562 C 72.046875 135.3125 72.167969 135.125 72.257812 134.914062 C 72.453125 134.542969 72.59375 134.140625 72.800781 133.65625 L 72.800781 136.070312 L 74.714844 136.070312 C 74.714844 134.28125 74.742188 132.523438 74.699219 130.765625 " />
<path fill-rule="nonzero" fill="rgb(91.096497%, 90.841675%, 79.28009%)" fill-opacity="1" d="M 77.152344 143.714844 C 77.203125 143.71875 77.253906 143.726562 77.308594 143.730469 C 77.457031 142.394531 78.539062 142.511719 79.535156 142.417969 C 80.363281 142.292969 80.089844 141.09375 79.371094 141.027344 C 77.578125 140.664062 77.058594 142.238281 77.152344 143.714844 M 81.484375 144.273438 C 81.484375 144.878906 81.488281 145.488281 81.476562 146.097656 C 80.09375 147.289062 77.191406 147.125 75.890625 145.410156 C 74 143.105469 75.585938 139.199219 78.667969 139.253906 C 82.089844 138.855469 83.492188 143.285156 80.425781 143.722656 C 79.828125 143.878906 77.730469 143.484375 77.699219 144.222656 C 77.644531 144.597656 77.910156 144.785156 78.214844 144.894531 C 79.425781 145.390625 80.5 144.9375 81.484375 144.273438 " />
<path fill-rule="nonzero" fill="rgb(91.096497%, 90.841675%, 79.28009%)" fill-opacity="1" d="M 81.652344 136.066406 L 79.714844 136.066406 C 79.714844 134.769531 79.71875 133.464844 79.710938 132.164062 C 79.742188 131.480469 79.445312 130.523438 78.730469 130.457031 C 76.21875 130.136719 77.203125 134.511719 77.015625 136.054688 L 75.074219 136.054688 L 75.074219 128.917969 L 77.003906 128.917969 L 77.003906 130.394531 C 77.929688 128.210938 80.953125 127.964844 81.558594 130.484375 C 81.8125 132.3125 81.710938 134.238281 81.652344 136.066406 " />
<path fill-rule="nonzero" fill="rgb(91.096497%, 90.841675%, 79.28009%)" fill-opacity="1" d="M 152.152344 131.972656 C 155.105469 133.113281 158.46875 133.109375 161.414062 131.933594 C 164.070312 130.875 167.28125 128.539062 166.667969 125.253906 C 166.175781 122.636719 162.375 121.191406 161.058594 124.015625 C 160.535156 125.144531 160.863281 126.472656 161.949219 127.136719 C 163.082031 127.828125 164.585938 127.707031 165.8125 127.371094 C 168.859375 126.535156 171.308594 123.902344 171.851562 120.785156 C 172.019531 119.84375 170.574219 119.4375 170.40625 120.386719 C 169.980469 122.820312 168.261719 124.9375 165.914062 125.769531 C 165.019531 126.089844 163.191406 126.554688 162.476562 125.644531 C 162.101562 125.171875 162.371094 124.417969 162.847656 124.121094 C 163.398438 123.773438 164.097656 123.992188 164.558594 124.390625 C 165.871094 125.519531 165.082031 127.476562 164.089844 128.507812 C 163.148438 129.488281 161.867188 130.191406 160.597656 130.648438 C 157.976562 131.589844 155.140625 131.527344 152.550781 130.527344 C 151.648438 130.183594 151.257812 131.628906 152.152344 131.972656 " />
</svg>